<svg xmlns="http://www.w3.org/2000/svg" width="198.641" height="200" viewBox="0 0 198.641 200"><path fill="#138469" d="M265.938-337.38l18.657 42.046c-7.068 3.136-10.256 11.408-7.12 18.475 3.137 7.07 11.408 10.256 18.476 7.12l34.882 78.61 35.648-15.818S338.634-331.346 265.938-337.38z"/><circle fill="#151521" cx="99.758" cy="99.48" r="99.32"/><path fill="#19BD9C" d="M197.885 87.084c-9.386-6.202-17.21 3.072-17.21 3.072-5.35-3.02-10.6-5.68-15.75-8.038-3.566 5.556-9.156 11.167-17.854 15.863 0 0-39.983 10.04-54.007-17.994 0 0-8.604-18.774 0-33.638 0 0 6.258 17.864 28.944 19.036 0 0 26.597 5.214 42.633-5.737l5.92-3.12c0-28.082-23.116-50.847-51.63-50.847-28.514 0-51.63 22.766-51.63 50.848 0 4.705.652 9.26 1.867 13.585 0 0 3.94 23.81 40.978 30.286 0 0-35.487-2.665-44.602-29.402-29.714 7.648-46.795 23.068-46.795 23.068C1.538 90.156.756 107.374.756 107.374l7.823 5.468c-.783-9.387 10.95-1.566 10.95-1.566L22.66 104c7.823-9.625 23.468-5.24 23.468-5.24l21.91 4.88s-19.67-1.89-21.73-.33l1.385 35.347c6.258 36.767 26.075 45.37 26.075 45.37 9.387-7.04-2.607-21.12-2.607-21.12-.78-39.113 28.16-17.992 28.16-17.992 8.606 13.298-14.86 22.685-14.86 22.685l14.86 22.688c10.953-.784 6.26-16.43 6.26-16.43 23.468-25.814 17.21-46.15 17.21-46.15 20.338-27.38 53.975-30.51 53.975-30.51.94 9.7 14.864 6.803 14.864 6.803l-4.694-6.018c-2.35-6.26 10.95-10.898 10.95-10.898z"/></svg>