<?xml version="1.0" encoding="utf-8"?>
<!-- Generator: Adobe Illustrator 16.0.0, SVG Export Plug-In . SVG Version: 6.00 Build 0)  -->
<!DOCTYPE svg PUBLIC "-//W3C//DTD SVG 1.1//EN" "http://www.w3.org/Graphics/SVG/1.1/DTD/svg11.dtd">
<svg version="1.1" id="Capa_1" xmlns="http://www.w3.org/2000/svg" xmlns:xlink="http://www.w3.org/1999/xlink" x="0px" y="0px"
	 width="198.641px" height="200px" viewBox="0 0 198.641 200" enable-background="new 0 0 198.641 200" xml:space="preserve">
<path fill="#138469" d="M265.938-337.38l18.657,42.046c-7.068,3.136-10.256,11.408-7.119,18.475
	c3.136,7.068,11.407,10.255,18.475,7.119l34.881,78.609l35.648-15.817C366.48-206.948,338.634-331.346,265.938-337.38z"/>
<circle fill="#151521" cx="99.758" cy="99.48" r="99.32"/>
<g>
	<path fill="#19BD9C" d="M197.885,87.084c-9.386-6.202-17.209,3.072-17.209,3.072c-5.352-3.02-10.6-5.679-15.75-8.038
		c-3.567,5.556-9.157,11.167-17.855,15.863c0,0-39.984,10.039-54.008-17.995c0,0-8.604-18.774,0-33.638
		c0,0,6.258,17.864,28.944,19.036c0,0,26.597,5.214,42.633-5.737l5.919-3.12c0-28.082-23.115-50.847-51.63-50.847
		C90.416,5.681,67.3,28.446,67.3,56.528c0,4.705,0.652,9.26,1.867,13.585c0,0,3.94,23.811,40.978,30.286
		c0,0-35.487-2.664-44.602-29.401c-29.714,7.648-46.795,23.068-46.795,23.068c-17.209-3.91-17.992,13.308-17.992,13.308l7.823,5.468
		c-0.782-9.387,10.952-1.566,10.952-1.566l3.129-7.276c7.823-9.625,23.468-5.239,23.468-5.239l21.909,4.878
		c0,0-19.67-1.889-21.729-0.33l1.385,35.348c6.258,36.767,26.075,45.371,26.075,45.371c9.387-7.04-2.607-21.121-2.607-21.121
		c-0.782-39.113,28.16-17.992,28.16-17.992c8.605,13.298-14.862,22.685-14.862,22.685l14.862,22.688
		c10.952-0.784,6.259-16.429,6.259-16.429c23.468-25.815,17.209-46.152,17.209-46.152c20.339-27.38,53.976-30.509,53.976-30.509
		c0.94,9.699,14.864,6.803,14.864,6.803l-4.693-6.019C184.587,91.721,197.885,87.084,197.885,87.084z"/>
</g>
</svg>
